<svg width="20" height="20" viewBox="0 0 20 20" fill="none" xmlns="http://www.w3.org/2000/svg">
<g id="Filter">
<path id="Shape" d="M2.5 4.375C2.5 4.02982 2.77982 3.75 3.125 3.75H16.875C17.2202 3.75 17.5 4.02982 17.5 4.375C17.5 4.72018 17.2202 5 16.875 5H3.125C2.77982 5 2.5 4.72018 2.5 4.375ZM5 9.375C5 9.02982 5.27982 8.75 5.625 8.75H14.375C14.7202 8.75 15 9.02982 15 9.375C15 9.72018 14.7202 10 14.375 10H5.625C5.27982 10 5 9.72018 5 9.375ZM7.5 14.375C7.5 14.0298 7.77982 13.75 8.125 13.75H11.875C12.2202 13.75 12.5 14.0298 12.5 14.375C12.5 14.7202 12.2202 15 11.875 15H8.125C7.77982 15 7.5 14.7202 7.5 14.375Z" fill="#00CCFF"/>
</g>
</svg>
